<?xml version="1.0" encoding="utf-8"?>
<!DOCTYPE svg PUBLIC "-//W3C//DTD SVG 20010904//EN" "http://www.w3.org/TR/2001/REC-SVG-20010904/DTD/svg10.dtd">
<svg version="1.0" xmlns="http://www.w3.org/2000/svg" width="1500px" height="1500px" viewBox="0 0 1500 1500" preserveAspectRatio="xMidYMid meet">
 <g fill="#6239e6">
  <path d="M791.7 1455.4 c-20.3 -4.3 -36.5 -9.7 -52.4 -17.7 -15.7 -7.9 -32.2 -20.1 -39.3 -28.8 l-3.1 -3.9 0.1 -101.2 c0 -75.6 -0.5 -120.7 -2 -177.8 -1.1 -42.1 -2 -81 -2 -86.5 -0.1 -9 -0.2 -9.8 -1.5 -8 -18 24.6 -24.3 31.2 -40.6 42.1 -21.1 14.1 -47.5 23.6 -76.5 27.4 -6.8 0.9 -10.4 1 -14.3 0.1 -2.9 -0.6 -8.3 -1.1 -12.1 -1.1 -16.7 0 -65 -15.7 -98.5 -32 -26.3 -12.8 -46.7 -26.3 -75.5 -49.9 -37.5 -30.7 -59.4 -52.5 -79.1 -78.8 -43.4 -57.8 -69.1 -134.5 -69 -205.8 0.1 -93.4 30.1 -177.5 82.1 -229.6 5.8 -5.8 15 -13.9 20.4 -18 5.4 -4.1 13.1 -9.8 17 -12.8 26.2 -19.7 63.4 -34.3 105.1 -41.2 53.7 -8.8 120 9 182 48.9 17.3 11.2 45.7 33.7 61.8 49.1 3.1 3 4.7 4 4.7 2.9 0 -6.8 2.3 -74.2 3.5 -103.7 1.3 -31.1 2.1 -40.6 5.6 -66 2.2 -16.3 4.8 -36.5 5.9 -44.9 4 -30.3 11 -54.9 24.1 -84.4 22.9 -51.4 68.4 -111.1 107.9 -141.7 34.6 -26.7 80.7 -44.7 126 -49.1 43.5 -4.2 78.5 2.2 116.9 21.4 58.7 29.5 93.5 81.4 104.8 156.3 2.4 16.5 2.5 69.2 0 82.8 -5.2 28.9 -14.2 53.4 -26.9 74 -9.1 14.6 -20.3 27.7 -46.3 54.3 -21.1 21.6 -42.2 39 -61 50.4 -10.2 6.2 -13.2 10.7 -11.4 17.1 1.6 6.1 4.3 7.5 16.9 9.2 56.2 7.9 114.5 40.2 159 88.1 27.4 29.5 43.4 70.6 49 125.4 1.6 15.6 1.3 53.2 -0.5 68.5 -5.8 48.9 -24.1 96.4 -51.5 133 -17.4 23.4 -61.8 68.3 -88.7 89.8 -18.6 14.8 -53.8 37.2 -77.3 49.1 -46.8 23.8 -88 34.4 -128.5 33.1 -20.3 -0.7 -28.5 -2.2 -42.5 -7.9 -20.7 -8.3 -38 -20.6 -59.5 -42.1 -10.9 -11 -15.4 -14.8 -20.4 -17.3 -8.1 -4.1 -9.1 -4 -9.1 0.1 0 15.2 3.2 93.5 9.2 230.2 8.5 191.3 8.2 184.3 6.9 189.3 -1.3 4.6 -4.3 8.8 -6.8 9.4 -1 0.3 -6.7 -0.6 -12.6 -1.8z m-217.2 -419.2 c1.7 -0.5 6.6 -1.8 11 -2.7 4.4 -1 8.5 -2.2 9 -2.6 0.6 -0.3 2.6 -1 4.5 -1.4 1.9 -0.4 4.1 -1.1 5 -1.6 0.8 -0.4 4.4 -2 8 -3.6 5.8 -2.4 12.6 -6 25.5 -13.3 12.2 -6.9 37.4 -25.3 50.4 -36.9 l4.4 -3.9 -1.2 -51.9 c-3.2 -146.5 -3.3 -150.8 -6.1 -237.8 -0.6 -17.6 -1.7 -35.8 -2.4 -40.5 -3.5 -21.6 -4.1 -24.2 -7.3 -36.5 -10 -37.8 -29.1 -68.4 -54.8 -87.7 -9.5 -7.1 -20.2 -13.2 -30.2 -17.2 -24.2 -9.6 -49.5 -11.1 -75.3 -4.6 -1.9 0.5 -5.7 1.4 -8.5 2 -2.7 0.6 -5.8 1.5 -6.7 2 -0.9 0.5 -3.5 1.3 -5.8 1.6 -2.2 0.4 -4.3 1.1 -4.6 1.5 -0.3 0.5 -1.3 0.9 -2.2 0.9 -0.9 0 -3 0.7 -4.6 1.5 -1.5 0.8 -3.2 1.5 -3.6 1.5 -0.4 0 -4.7 1.8 -9.4 4.1 -10.8 5.1 -27.8 15.5 -37.8 23 -25.8 19.7 -50.5 51.6 -64.1 82.9 -4.7 10.6 -5.7 13.3 -8.7 21.5 -1.8 5 -3.6 9.9 -4 11 -1.2 2.7 -5.4 18.3 -7.5 27.4 -7.4 32.1 -10.9 82.9 -8.5 122.1 2.5 39 3.8 50.7 8.1 70 1.1 5.2 2.4 11.5 2.9 14 3.2 16 10.3 35.5 21 57.5 16.5 33.9 45.2 63.7 76 78.9 31.8 15.7 58.5 20.8 104.5 20.1 11 -0.2 21.4 -0.8 23 -1.3z m422.9 -6.3 c18.3 -3.4 43 -9.4 45.1 -10.9 0.6 -0.4 2.5 -1.1 4.3 -1.5 1.8 -0.4 4.5 -1.3 6 -2.1 1.5 -0.8 3.3 -1.4 4 -1.4 0.7 0 2 -0.4 3 -1 0.9 -0.5 4.6 -2.1 8.2 -3.6 3.6 -1.4 11.1 -4.8 16.7 -7.5 8.8 -4.3 11.7 -6.4 20.8 -15 23.8 -22.8 38.7 -49.1 51.9 -91.7 0.9 -2.9 2.2 -7.4 2.7 -10 8.3 -37.8 9.4 -47.5 9.4 -86.2 0 -34.7 -0.4 -38.7 -6.5 -63 -5.1 -20.5 -17.3 -47.2 -31 -67.8 -14.4 -21.5 -25.7 -34.4 -47 -53.1 -8.5 -7.5 -15.7 -13.8 -16 -14.1 -5.7 -6.1 -33.4 -21.8 -46.5 -26.5 -2.7 -0.9 -6.4 -2.4 -8.2 -3.1 -1.7 -0.8 -4 -1.4 -5 -1.4 -1 0 -2.3 -0.4 -2.9 -0.9 -0.5 -0.5 -3.1 -1.4 -5.9 -2.1 -20.7 -4.8 -34.3 -6.8 -52.3 -7.8 -12.2 -0.6 -18.1 -0.4 -37.9 1.4 l-7.1 0.6 2.8 -5.8 c3.5 -7.3 8.1 -17.3 11 -23.9 1.2 -2.7 2.8 -6.4 3.5 -8 0.7 -1.7 2.2 -5 3.3 -7.5 1.1 -2.5 2.9 -6.5 4.1 -9 l2.1 -4.5 9.3 0.3 c5.2 0.2 12.2 -0.1 15.8 -0.7 10 -1.6 18.7 -3.5 19.5 -4.4 0.4 -0.4 1.5 -0.7 2.4 -0.7 2 0 13 -3.5 23.3 -7.4 19.4 -7.3 54.2 -43.2 70.7 -73.1 12.2 -21.9 20.6 -44 25.5 -66.5 0.9 -4.1 2.1 -9.3 2.6 -11.5 3.2 -13.4 4.9 -50.4 2.9 -64.5 -4.8 -34.8 -7.3 -45.1 -18.2 -74.4 -0.6 -1.7 -3 -6.9 -5.3 -11.6 -15.8 -32.1 -38.1 -56.3 -67.8 -73.4 -5.4 -3.1 -10 -5.6 -10.3 -5.6 -0.4 0 -3.6 -1.3 -11.9 -5 -2.3 -1 -13 -4.3 -19.5 -6 -2.5 -0.6 -5.9 -1.6 -7.6 -2.1 -3.9 -1.2 -38.6 -1.2 -41.6 0 -1.3 0.5 -5 1.7 -8.3 2.6 -9.6 2.7 -14.4 4.6 -23.4 9.2 -28.1 14.5 -49.3 39 -63.6 73.8 -2.1 5 -4.4 10.4 -5.1 12.2 -0.8 1.7 -1.4 3.8 -1.4 4.6 0 0.9 -0.4 1.8 -0.9 2.1 -0.5 0.4 -1.2 2.4 -1.6 4.6 -0.4 2.2 -1 4.2 -1.5 4.5 -0.5 0.3 -1.1 2.4 -1.5 4.8 -0.4 2.3 -1.1 4.7 -1.5 5.2 -0.4 0.6 -1.1 3 -1.5 5.5 -0.4 2.5 -1.1 5 -1.5 5.5 -2.8 3.5 -8 28.4 -10 47.5 -0.6 5.2 -1.5 13.1 -2.1 17.5 -1.6 12.2 -2.6 50.3 -2.8 110.5 -0.1 30 -0.6 77.5 -1.1 105.5 -2 108.3 -0.9 434.6 1.6 451.1 0.2 1.7 1.4 4.2 2.5 5.5 1.2 1.3 2.8 3.4 3.6 4.6 4.2 6.4 39.8 26.2 63.8 35.6 9.5 3.7 30.3 10.6 39.5 13.1 3 0.8 8 2.2 11 3 3 0.8 9.1 2.2 13.5 3.1 4.4 0.9 9.6 2 11.5 2.5 5.4 1.2 51.5 1.2 58.4 -0.1z"/>
 </g>
</svg>